<?xml version="1.0" encoding="UTF-8" standalone="no"?>
<!-- Created with Inkscape (http://www.inkscape.org/) -->

<svg
   width="16.40423mm"
   height="23.812502mm"
   viewBox="0 0 16.40423 23.812502"
   version="1.1"
   id="svg1"
   xml:space="preserve"
   xmlns="http://www.w3.org/2000/svg"
   xmlns:svg="http://www.w3.org/2000/svg"><defs
     id="defs1" /><g
     id="g6"
     transform="matrix(0.26458333,0,0,0.26458333,-0.11505367,-0.16087737)"><g
       data-v-423bf9ae=""
       id="22753403-2d47-480d-9835-b4557544b877"
       fill="#df728b"><path
         d=""
         id="path1-2" /></g><g
       data-v-423bf9ae=""
       id="20ae5ff9-17d4-4be5-a47b-fc23f3661c75"
       transform="matrix(1.5921595,0,0,1.5921595,-52.798996,-36.979702)"
       stroke="none"
       fill="#df728b"><path
         d="m 55.876,23.608 h -5.928 c -2.481,0 -4.5,2.019 -4.5,4.5 0,2.481 2.019,4.5 4.5,4.5 a 1.5,1.5 0 1 0 0,-3 c -0.827,0 -1.5,-0.673 -1.5,-1.5 0,-0.827 0.673,-1.5 1.5,-1.5 h 5.928 c 7.444,0 13.5,6.056 13.5,13.5 v 2.766 c 0,7.444 -6.056,13.5 -13.5,13.5 a 1.5,1.5 0 1 0 0,3 c 9.098,0 16.5,-7.402 16.5,-16.5 v -2.766 c 0,-9.098 -7.402,-16.5 -16.5,-16.5 z"
         id="path2-4" /><path
         d="m 49.948,56.374 c -0.827,0 -1.5,-0.673 -1.5,-1.5 0,-0.827 0.673,-1.5 1.5,-1.5 h 5.928 c 5.79,0 10.5,-4.71 10.5,-10.5 v -2.766 c 0,-5.79 -4.71,-10.5 -10.5,-10.5 a 1.5,1.5 0 1 0 0,3 c 4.136,0 7.5,3.364 7.5,7.5 v 2.766 c 0,4.136 -3.364,7.5 -7.5,7.5 h -5.928 c -2.481,0 -4.5,2.019 -4.5,4.5 0,2.481 2.019,4.5 4.5,4.5 a 1.5,1.5 0 1 0 0,-3 z M 37.935,23.608 c -2.378,0 -4.311,1.859 -4.47,4.197 -0.02,0.098 -0.03,0.199 -0.03,0.303 v 47.527 c 0,0.104 0.011,0.205 0.03,0.303 0.159,2.338 2.092,4.197 4.47,4.197 2.481,0 4.5,-2.019 4.5,-4.5 a 1.5,1.5 0 1 0 -3,0 c 0,0.827 -0.673,1.5 -1.5,1.5 -0.827,0 -1.5,-0.673 -1.5,-1.5 V 28.108 c 0,-0.827 0.673,-1.5 1.5,-1.5 0.827,0 1.5,0.673 1.5,1.5 a 1.5,1.5 0 1 0 3,0 c 0,-2.481 -2.019,-4.5 -4.5,-4.5 z"
         id="path3" /><path
         d="m 40.935,32.608 a 1.5,1.5 0 0 0 -1.5,1.5 v 35.527 a 1.5,1.5 0 1 0 3,0 V 34.108 a 1.5,1.5 0 0 0 -1.5,-1.5 z"
         id="path4-5" /></g><g
       data-v-423bf9ae=""
       id="e3480d9f-2b61-415f-91d7-10efde400534"
       fill="#df728b"><path
         d=""
         id="path5-5" /></g></g></svg>
