<svg data-v-fde0c5aa="" xmlns="http://www.w3.org/2000/svg" viewBox="0 0 300 300" class="iconAbove"><!----><defs data-v-fde0c5aa=""><!----></defs><rect data-v-fde0c5aa="" fill="#181820" x="0" y="0" width="300px" height="300px" class="logo-background-square"></rect><defs data-v-fde0c5aa=""><!----></defs><g data-v-fde0c5aa="" id="e5398ee7-6d40-4551-9370-15cc5da4fd6e" fill="#DF728B" transform="matrix(4.777655124664307,0,0,4.777655124664307,15.6523337340214,152.0724010167759)"><path d="M3.35 10.15L4.09 10.15Q4.68 10.15 4.99 9.88Q5.31 9.60 5.31 9.04L5.31 9.04Q5.31 8.51 4.98 8.23Q4.65 7.94 4.02 7.94L4.02 7.94Q3.79 7.94 3.65 7.95Q3.50 7.95 3.35 7.98L3.35 7.98L3.35 10.15ZM3.36 12.07L3.36 14.64Q3.21 14.69 2.88 14.73Q2.55 14.77 2.23 14.77L2.23 14.77Q1.90 14.77 1.66 14.72Q1.41 14.67 1.25 14.55Q1.08 14.42 0.99 14.20Q0.91 13.97 0.91 13.61L0.91 13.61L0.91 7.01Q0.91 6.72 1.07 6.56Q1.23 6.40 1.51 6.30L1.51 6.30Q1.99 6.13 2.60 6.06Q3.21 5.98 3.82 5.98L3.82 5.98Q5.75 5.98 6.78 6.80Q7.80 7.63 7.80 9.04L7.80 9.04Q7.80 9.73 7.58 10.28Q7.36 10.84 6.94 11.24Q6.51 11.63 5.86 11.85Q5.21 12.07 4.35 12.07L4.35 12.07L3.36 12.07ZM12.22 11.96L11.48 11.96L11.48 14.64Q11.33 14.69 11.00 14.73Q10.67 14.77 10.35 14.77L10.35 14.77Q10.02 14.77 9.78 14.72Q9.53 14.67 9.37 14.55Q9.21 14.42 9.13 14.20Q9.04 13.97 9.04 13.61L9.04 13.61L9.04 7.01Q9.04 6.72 9.21 6.56Q9.37 6.40 9.65 6.30L9.65 6.30Q10.12 6.13 10.75 6.06Q11.38 5.98 12.10 5.98L12.10 5.98Q14.03 5.98 15.01 6.79Q15.99 7.60 15.99 8.99L15.99 8.99Q15.99 9.86 15.54 10.47Q15.09 11.09 14.48 11.42L14.48 11.42Q14.98 12.11 15.47 12.71Q15.96 13.31 16.24 13.80L16.24 13.80Q16.10 14.29 15.73 14.55Q15.36 14.81 14.90 14.81L14.90 14.81Q14.59 14.81 14.36 14.74Q14.14 14.67 13.97 14.55Q13.80 14.42 13.66 14.24Q13.52 14.06 13.40 13.85L13.40 13.85L12.22 11.96ZM11.47 10.09L12.36 10.09Q12.89 10.09 13.20 9.82Q13.51 9.55 13.51 9.02L13.51 9.02Q13.51 8.48 13.17 8.21Q12.82 7.94 12.08 7.94L12.08 7.94Q11.87 7.94 11.75 7.95Q11.62 7.97 11.47 7.99L11.47 7.99L11.47 10.09ZM17.15 10.44L17.15 10.44Q17.15 9.35 17.49 8.51Q17.84 7.67 18.43 7.11Q19.03 6.54 19.83 6.24Q20.64 5.95 21.57 5.95L21.57 5.95Q22.51 5.95 23.32 6.24Q24.12 6.54 24.72 7.11Q25.33 7.67 25.67 8.51Q26.01 9.35 26.01 10.44L26.01 10.44Q26.01 11.54 25.68 12.38Q25.34 13.23 24.75 13.80Q24.15 14.36 23.34 14.66Q22.53 14.95 21.57 14.95L21.57 14.95Q20.62 14.95 19.81 14.65Q19.00 14.35 18.41 13.78Q17.82 13.20 17.49 12.36Q17.15 11.52 17.15 10.44ZM19.67 10.44L19.67 10.44Q19.67 11.72 20.19 12.35Q20.71 12.98 21.57 12.98L21.57 12.98Q22.46 12.98 22.97 12.35Q23.49 11.72 23.49 10.44L23.49 10.44Q23.49 9.18 22.98 8.55Q22.47 7.92 21.59 7.92L21.59 7.92Q20.72 7.92 20.20 8.55Q19.67 9.17 19.67 10.44ZM29.85 8.01L29.85 12.88Q30.00 12.91 30.23 12.93Q30.45 12.95 30.65 12.95L30.65 12.95Q31.12 12.95 31.52 12.81Q31.92 12.67 32.21 12.38Q32.49 12.08 32.66 11.61Q32.82 11.14 32.82 10.49L32.82 10.49Q32.82 9.23 32.23 8.59Q31.64 7.95 30.66 7.95L30.66 7.95Q30.46 7.95 30.26 7.97Q30.06 7.98 29.85 8.01L29.85 8.01ZM30.63 14.92L30.63 14.92Q30.39 14.92 30.09 14.91Q29.78 14.90 29.45 14.85Q29.12 14.81 28.79 14.75Q28.46 14.69 28.18 14.57L28.18 14.57Q27.41 14.28 27.41 13.55L27.41 13.55L27.41 7.01Q27.41 6.72 27.57 6.56Q27.73 6.40 28.01 6.30L28.01 6.30Q28.62 6.10 29.29 6.04Q29.96 5.98 30.49 5.98L30.49 5.98Q31.58 5.98 32.47 6.24Q33.36 6.51 34.00 7.06Q34.64 7.62 34.99 8.46Q35.34 9.30 35.34 10.44L35.34 10.44Q35.34 11.56 35 12.40Q34.66 13.23 34.04 13.80Q33.42 14.36 32.55 14.64Q31.68 14.92 30.63 14.92ZM39.19 7.25L39.19 14.64Q39.03 14.69 38.70 14.73Q38.37 14.77 38.05 14.77L38.05 14.77Q37.73 14.77 37.48 14.72Q37.24 14.67 37.07 14.55Q36.90 14.42 36.82 14.20Q36.74 13.97 36.74 13.61L36.74 13.61L36.74 6.22Q36.89 6.19 37.23 6.14Q37.56 6.09 37.87 6.09L37.87 6.09Q38.19 6.09 38.44 6.14Q38.68 6.19 38.85 6.31Q39.02 6.44 39.10 6.66Q39.19 6.89 39.19 7.25L39.19 7.25ZM42.31 6.22L46.97 6.22Q47.07 6.37 47.15 6.63Q47.22 6.89 47.22 7.17L47.22 7.17Q47.22 7.71 46.99 7.95Q46.76 8.18 46.37 8.18L46.37 8.18L43.43 8.18L43.43 9.76L46.49 9.76Q46.61 9.91 46.68 10.16Q46.76 10.42 46.76 10.70L46.76 10.70Q46.76 11.23 46.53 11.46Q46.30 11.69 45.91 11.69L45.91 11.69L43.46 11.69L43.46 14.64Q43.30 14.69 42.97 14.73Q42.64 14.77 42.32 14.77L42.32 14.77Q42.00 14.77 41.76 14.72Q41.51 14.67 41.34 14.55Q41.17 14.42 41.09 14.20Q41.01 13.97 41.01 13.61L41.01 13.61L41.01 7.52Q41.01 6.92 41.36 6.57Q41.71 6.22 42.31 6.22L42.31 6.22ZM52.89 11.80L52.89 14.64Q52.74 14.69 52.42 14.73Q52.09 14.77 51.79 14.77L51.79 14.77Q51.14 14.77 50.82 14.55Q50.50 14.34 50.50 13.64L50.50 13.64L50.50 11.75Q50.15 11.23 49.74 10.60Q49.34 9.97 48.94 9.31Q48.55 8.65 48.22 8.02Q47.88 7.38 47.67 6.85L47.67 6.85Q47.85 6.59 48.17 6.38Q48.48 6.17 48.94 6.17L48.94 6.17Q49.49 6.17 49.83 6.40Q50.18 6.62 50.48 7.24L50.48 7.24L51.65 9.58L51.73 9.58Q51.93 9.14 52.07 8.79Q52.22 8.43 52.36 8.07Q52.50 7.71 52.65 7.33Q52.81 6.94 53.00 6.44L53.00 6.44Q53.26 6.31 53.56 6.24Q53.87 6.17 54.15 6.17L54.15 6.17Q54.64 6.17 54.98 6.43Q55.33 6.69 55.33 7.21L55.33 7.21Q55.33 7.38 55.26 7.62Q55.19 7.85 54.94 8.34Q54.68 8.82 54.20 9.65Q53.72 10.47 52.89 11.80L52.89 11.80Z"></path></g><defs data-v-fde0c5aa=""><!----></defs><g data-v-fde0c5aa="" id="91f60411-d734-4bbb-ae3e-70085429d276" stroke="none" fill="#DF728B" transform="matrix(1.521357774734497,0,0,1.521357774734497,69.51180542428666,40.58544202237673)"><path d="M55.876 23.608h-5.928c-2.481 0-4.5 2.019-4.5 4.5s2.019 4.5 4.5 4.5a1.5 1.5 0 100-3c-.827 0-1.5-.673-1.5-1.5s.673-1.5 1.5-1.5h5.928c7.444 0 13.5 6.056 13.5 13.5v2.766c0 7.444-6.056 13.5-13.5 13.5a1.5 1.5 0 100 3c9.098 0 16.5-7.402 16.5-16.5v-2.766c0-9.098-7.402-16.5-16.5-16.5z"></path><path d="M49.948 56.374c-.827 0-1.5-.673-1.5-1.5s.673-1.5 1.5-1.5h5.928c5.79 0 10.5-4.71 10.5-10.5v-2.766c0-5.79-4.71-10.5-10.5-10.5a1.5 1.5 0 100 3c4.136 0 7.5 3.364 7.5 7.5v2.766c0 4.136-3.364 7.5-7.5 7.5h-5.928c-2.481 0-4.5 2.019-4.5 4.5s2.019 4.5 4.5 4.5a1.5 1.5 0 100-3zM37.935 23.608c-2.378 0-4.311 1.859-4.47 4.197-.02.098-.03.199-.03.303v47.527c0 .104.011.205.03.303.159 2.338 2.092 4.197 4.47 4.197 2.481 0 4.5-2.019 4.5-4.5a1.5 1.5 0 10-3 0c0 .827-.673 1.5-1.5 1.5s-1.5-.673-1.5-1.5V28.108c0-.827.673-1.5 1.5-1.5s1.5.673 1.5 1.5a1.5 1.5 0 103 0c0-2.481-2.019-4.5-4.5-4.5z"></path><path d="M40.935 32.608a1.5 1.5 0 00-1.5 1.5v35.527a1.5 1.5 0 103 0V34.108a1.5 1.5 0 00-1.5-1.5z"></path></g><!----></svg>