<?xml version="1.0" encoding="UTF-8" standalone="no"?>
<!-- Created with Inkscape (http://www.inkscape.org/) -->

<svg
   width="14.398636mm"
   height="2.3812504mm"
   viewBox="0 0 14.398636 2.3812503"
   version="1.1"
   id="svg1"
   xml:space="preserve"
   xmlns="http://www.w3.org/2000/svg"
   xmlns:svg="http://www.w3.org/2000/svg"><defs
     id="defs1" /><g
     id="g7"
     transform="matrix(0.26458333,0,0,0.26458333,-1.5737638,5.2778472)"><g
       data-v-fde0c5aa=""
       id="1bb6fbdd-b5aa-4c29-bf40-ef12a76261af"
       fill="#df728b"
       transform="translate(5.0381359,-25.897786)"><path
         d="m 3.35,10.15 h 0.74 q 0.59,0 0.9,-0.27 Q 5.31,9.6 5.31,9.04 v 0 Q 5.31,8.51 4.98,8.23 4.65,7.94 4.02,7.94 v 0 q -0.23,0 -0.37,0.01 -0.15,0 -0.3,0.03 v 0 z m 0.01,1.92 v 2.57 q -0.15,0.05 -0.48,0.09 -0.33,0.04 -0.65,0.04 v 0 Q 1.9,14.77 1.66,14.72 1.41,14.67 1.25,14.55 1.08,14.42 0.99,14.2 0.91,13.97 0.91,13.61 v 0 -6.6 Q 0.91,6.72 1.07,6.56 1.23,6.4 1.51,6.3 v 0 Q 1.99,6.13 2.6,6.06 3.21,5.98 3.82,5.98 v 0 q 1.93,0 2.96,0.82 1.02,0.83 1.02,2.24 v 0 q 0,0.69 -0.22,1.24 -0.22,0.56 -0.64,0.96 -0.43,0.39 -1.08,0.61 -0.65,0.22 -1.51,0.22 v 0 z m 8.86,-0.11 h -0.74 v 2.68 q -0.15,0.05 -0.48,0.09 -0.33,0.04 -0.65,0.04 v 0 q -0.33,0 -0.57,-0.05 Q 9.53,14.67 9.37,14.55 9.21,14.42 9.13,14.2 9.04,13.97 9.04,13.61 v 0 -6.6 Q 9.04,6.72 9.21,6.56 9.37,6.4 9.65,6.3 v 0 q 0.47,-0.17 1.1,-0.24 0.63,-0.08 1.35,-0.08 v 0 q 1.93,0 2.91,0.81 0.98,0.81 0.98,2.2 v 0 q 0,0.87 -0.45,1.48 -0.45,0.62 -1.06,0.95 v 0 q 0.5,0.69 0.99,1.29 0.49,0.6 0.77,1.09 v 0 q -0.14,0.49 -0.51,0.75 -0.37,0.26 -0.83,0.26 v 0 q -0.31,0 -0.54,-0.07 -0.22,-0.07 -0.39,-0.19 -0.17,-0.13 -0.31,-0.31 -0.14,-0.18 -0.26,-0.39 v 0 z m -0.75,-1.87 h 0.89 q 0.53,0 0.84,-0.27 0.31,-0.27 0.31,-0.8 v 0 q 0,-0.54 -0.34,-0.81 -0.35,-0.27 -1.09,-0.27 v 0 q -0.21,0 -0.33,0.01 -0.13,0.02 -0.28,0.04 v 0 z m 5.68,0.35 v 0 q 0,-1.09 0.34,-1.93 0.35,-0.84 0.94,-1.4 0.6,-0.57 1.4,-0.87 0.81,-0.29 1.74,-0.29 v 0 q 0.94,0 1.75,0.29 0.8,0.3 1.4,0.87 0.61,0.56 0.95,1.4 0.34,0.84 0.34,1.93 v 0 q 0,1.1 -0.33,1.94 -0.34,0.85 -0.93,1.42 -0.6,0.56 -1.41,0.86 -0.81,0.29 -1.77,0.29 v 0 q -0.95,0 -1.76,-0.3 -0.81,-0.3 -1.4,-0.87 -0.59,-0.58 -0.92,-1.42 -0.34,-0.84 -0.34,-1.92 z m 2.52,0 v 0 q 0,1.28 0.52,1.91 0.52,0.63 1.38,0.63 v 0 q 0.89,0 1.4,-0.63 0.52,-0.63 0.52,-1.91 v 0 q 0,-1.26 -0.51,-1.89 -0.51,-0.63 -1.39,-0.63 v 0 q -0.87,0 -1.39,0.63 -0.53,0.62 -0.53,1.89 z M 29.85,8.01 v 4.87 q 0.15,0.03 0.38,0.05 0.22,0.02 0.42,0.02 v 0 q 0.47,0 0.87,-0.14 0.4,-0.14 0.69,-0.43 0.28,-0.3 0.45,-0.77 0.16,-0.47 0.16,-1.12 v 0 q 0,-1.26 -0.59,-1.9 -0.59,-0.64 -1.57,-0.64 v 0 q -0.2,0 -0.4,0.02 -0.2,0.01 -0.41,0.04 z m 0.78,6.91 v 0 q -0.24,0 -0.54,-0.01 -0.31,-0.01 -0.64,-0.06 -0.33,-0.04 -0.66,-0.1 -0.33,-0.06 -0.61,-0.18 v 0 q -0.77,-0.29 -0.77,-1.02 v 0 -6.54 q 0,-0.29 0.16,-0.45 0.16,-0.16 0.44,-0.26 v 0 q 0.61,-0.2 1.28,-0.26 0.67,-0.06 1.2,-0.06 v 0 q 1.09,0 1.98,0.26 0.89,0.27 1.53,0.82 0.64,0.56 0.99,1.4 0.35,0.84 0.35,1.98 v 0 q 0,1.12 -0.34,1.96 -0.34,0.83 -0.96,1.4 -0.62,0.56 -1.49,0.84 -0.87,0.28 -1.92,0.28 z m 8.56,-7.67 v 7.39 q -0.16,0.05 -0.49,0.09 -0.33,0.04 -0.65,0.04 v 0 q -0.32,0 -0.57,-0.05 -0.24,-0.05 -0.41,-0.17 -0.17,-0.13 -0.25,-0.35 -0.08,-0.23 -0.08,-0.59 v 0 -7.39 q 0.15,-0.03 0.49,-0.08 0.33,-0.05 0.64,-0.05 v 0 q 0.32,0 0.57,0.05 0.24,0.05 0.41,0.17 0.17,0.13 0.25,0.35 0.09,0.23 0.09,0.59 z m 3.12,-1.03 h 4.66 q 0.1,0.15 0.18,0.41 0.07,0.26 0.07,0.54 v 0 q 0,0.54 -0.23,0.78 -0.23,0.23 -0.62,0.23 v 0 h -2.94 v 1.58 h 3.06 q 0.12,0.15 0.19,0.4 0.08,0.26 0.08,0.54 v 0 q 0,0.53 -0.23,0.76 -0.23,0.23 -0.62,0.23 v 0 h -2.45 v 2.95 q -0.16,0.05 -0.49,0.09 -0.33,0.04 -0.65,0.04 v 0 q -0.32,0 -0.56,-0.05 -0.25,-0.05 -0.42,-0.17 -0.17,-0.13 -0.25,-0.35 -0.08,-0.23 -0.08,-0.59 v 0 -6.09 q 0,-0.6 0.35,-0.95 0.35,-0.35 0.95,-0.35 z m 10.58,5.58 v 2.84 q -0.15,0.05 -0.47,0.09 -0.33,0.04 -0.63,0.04 v 0 q -0.65,0 -0.97,-0.22 -0.32,-0.21 -0.32,-0.91 v 0 -1.89 Q 50.15,11.23 49.74,10.6 49.34,9.97 48.94,9.31 48.55,8.65 48.22,8.02 47.88,7.38 47.67,6.85 v 0 q 0.18,-0.26 0.5,-0.47 0.31,-0.21 0.77,-0.21 v 0 q 0.55,0 0.89,0.23 0.35,0.22 0.65,0.84 v 0 l 1.17,2.34 h 0.08 Q 51.93,9.14 52.07,8.79 52.22,8.43 52.36,8.07 52.5,7.71 52.65,7.33 52.81,6.94 53,6.44 v 0 q 0.26,-0.13 0.56,-0.2 0.31,-0.07 0.59,-0.07 v 0 q 0.49,0 0.83,0.26 0.35,0.26 0.35,0.78 v 0 q 0,0.17 -0.07,0.41 -0.07,0.23 -0.32,0.72 -0.26,0.48 -0.74,1.31 -0.48,0.82 -1.31,2.15 z"
         id="path2-1" /></g></g></svg>
